<svg width="820" height="320" viewBox="0 0 820 320" xmlns="http://www.w3.org/2000/svg" font-family="'Fira Code', 'Cascadia Code', 'Courier New', monospace">
  <rect width="820" height="320" rx="10" fill="#1e1e2e"/>
  <rect width="820" height="36" rx="10" fill="#313244"/>
  <rect y="26" width="820" height="10" fill="#313244"/>
  <circle cx="20" cy="18" r="6" fill="#ff5f57"/>
  <circle cx="40" cy="18" r="6" fill="#febc2e"/>
  <circle cx="60" cy="18" r="6" fill="#28c840"/>
  <text x="410" y="23" text-anchor="middle" fill="#cdd6f4" font-size="13" font-weight="500">nutrition-api — docker compose up -d</text>

  <text x="20" y="62" fill="#a6e3a1" font-size="13">❯</text>
  <text x="36" y="62" fill="#cdd6f4" font-size="13">docker compose up -d</text>

  <text x="20" y="86" fill="#6c7086" font-size="13">[+] Building 12.3s (10/10) FINISHED</text>
  <text x="20" y="106" fill="#6c7086" font-size="13"> ✔ nutrition-api  Built</text>
  <text x="20" y="126" fill="#a6e3a1" font-size="13"> ✔</text><text x="38" y="126" fill="#cdd6f4" font-size="13">Network syst-me-de-nutrition-intelligente_nutrition-net  Created</text>
  <text x="20" y="146" fill="#a6e3a1" font-size="13"> ✔</text><text x="38" y="146" fill="#cdd6f4" font-size="13">Container nutrition-api                                  Started</text>

  <text x="20" y="174" fill="#a6e3a1" font-size="13">❯</text>
  <text x="36" y="174" fill="#cdd6f4" font-size="13">curl http://localhost:3000/api/v1/health</text>

  <text x="20" y="198" fill="#cdd6f4" font-size="13">{</text>
  <text x="20" y="218" fill="#89b4fa" font-size="13">  "status"</text><text x="107" y="218" fill="#cdd6f4" font-size="13">:      </text><text x="143" y="218" fill="#a6e3a1" font-size="13">"ok"</text><text x="175" y="218" fill="#cdd6f4" font-size="13">,</text>
  <text x="20" y="238" fill="#89b4fa" font-size="13">  "version"</text><text x="115" y="238" fill="#cdd6f4" font-size="13">:     </text><text x="151" y="238" fill="#a6e3a1" font-size="13">"1.0.0"</text><text x="207" y="238" fill="#cdd6f4" font-size="13">,</text>
  <text x="20" y="258" fill="#89b4fa" font-size="13">  "environment"</text><text x="151" y="258" fill="#cdd6f4" font-size="13">: </text><text x="161" y="258" fill="#a6e3a1" font-size="13">"production"</text>
  <text x="20" y="278" fill="#cdd6f4" font-size="13">}</text>

  <!-- Badges -->
  <rect x="20" y="296" width="110" height="16" rx="3" fill="#28c84020"/>
  <text x="75" y="308" text-anchor="middle" fill="#28c840" font-size="11" font-weight="bold">✓ API online :3000</text>
  <rect x="144" y="296" width="160" height="16" rx="3" fill="#89b4fa20"/>
  <text x="224" y="308" text-anchor="middle" fill="#89b4fa" font-size="11" font-weight="bold">✓ Swagger UI :3000/api/docs</text>
</svg>
