<svg width="860" height="520" viewBox="0 0 860 520" xmlns="http://www.w3.org/2000/svg">
  <defs>
    <linearGradient id="headerGrad" x1="0" y1="0" x2="1" y2="0">
      <stop offset="0%" stop-color="#6366f1"/>
      <stop offset="100%" stop-color="#8b5cf6"/>
    </linearGradient>
    <linearGradient id="protGrad" x1="0" y1="0" x2="1" y2="0">
      <stop offset="0%" stop-color="#f97316"/>
      <stop offset="100%" stop-color="#fb923c"/>
    </linearGradient>
    <linearGradient id="lipGrad" x1="0" y1="0" x2="1" y2="0">
      <stop offset="0%" stop-color="#eab308"/>
      <stop offset="100%" stop-color="#fbbf24"/>
    </linearGradient>
    <linearGradient id="glucGrad" x1="0" y1="0" x2="1" y2="0">
      <stop offset="0%" stop-color="#22c55e"/>
      <stop offset="100%" stop-color="#4ade80"/>
    </linearGradient>
    <linearGradient id="calGrad" x1="0" y1="0" x2="1" y2="0">
      <stop offset="0%" stop-color="#3b82f6"/>
      <stop offset="100%" stop-color="#60a5fa"/>
    </linearGradient>
  </defs>

  <!-- Background -->
  <rect width="860" height="520" rx="12" fill="#0f172a"/>

  <!-- Header -->
  <rect width="860" height="64" rx="12" fill="url(#headerGrad)"/>
  <rect y="52" width="860" height="12" fill="url(#headerGrad)"/>
  <text x="24" y="30" fill="white" font-size="18" font-weight="bold" font-family="Arial,sans-serif">🥗 Système de Nutrition Intelligente</text>
  <text x="24" y="50" fill="#e0e7ff" font-size="12" font-family="Arial,sans-serif">Analyse complète · Homme · 30 ans · 175 cm · 80 kg · Modérément actif · Perte de poids</text>

  <!-- ── Row 1: 3 stat cards ── -->

  <!-- Card IMC -->
  <rect x="16" y="80" width="186" height="100" rx="10" fill="#1e293b"/>
  <text x="30" y="104" fill="#94a3b8" font-size="11" font-family="Arial,sans-serif" font-weight="bold">IMC</text>
  <text x="30" y="135" fill="#f97316" font-size="36" font-weight="bold" font-family="Arial,sans-serif">26.1</text>
  <rect x="30" y="148" width="72" height="20" rx="10" fill="#f9731620"/>
  <text x="66" y="162" text-anchor="middle" fill="#f97316" font-size="11" font-family="Arial,sans-serif" font-weight="bold">SURPOIDS</text>
  <text x="158" y="162" fill="#64748b" font-size="10" font-family="Arial,sans-serif">OMS 2000</text>

  <!-- Card BMR -->
  <rect x="214" y="80" width="186" height="100" rx="10" fill="#1e293b"/>
  <text x="228" y="104" fill="#94a3b8" font-size="11" font-family="Arial,sans-serif" font-weight="bold">BMR · Métabolisme de base</text>
  <text x="228" y="135" fill="#a78bfa" font-size="36" font-weight="bold" font-family="Arial,sans-serif">1 749</text>
  <text x="228" y="155" fill="#64748b" font-size="12" font-family="Arial,sans-serif">kcal / jour</text>
  <text x="228" y="172" fill="#64748b" font-size="10" font-family="Arial,sans-serif">Mifflin-St Jeor (1990)</text>

  <!-- Card TDEE -->
  <rect x="412" y="80" width="186" height="100" rx="10" fill="#1e293b"/>
  <text x="426" y="104" fill="#94a3b8" font-size="11" font-family="Arial,sans-serif" font-weight="bold">TDEE · Dépense totale</text>
  <text x="426" y="135" fill="#38bdf8" font-size="36" font-weight="bold" font-family="Arial,sans-serif">2 711</text>
  <text x="426" y="155" fill="#64748b" font-size="12" font-family="Arial,sans-serif">kcal / jour</text>
  <text x="426" y="172" fill="#64748b" font-size="10" font-family="Arial,sans-serif">× 1.55 (modérément actif)</text>

  <!-- Card Calories cibles -->
  <rect x="610" y="80" width="234" height="100" rx="10" fill="#1e293b"/>
  <text x="624" y="104" fill="#94a3b8" font-size="11" font-family="Arial,sans-serif" font-weight="bold">CALORIES CIBLES</text>
  <text x="624" y="135" fill="#4ade80" font-size="36" font-weight="bold" font-family="Arial,sans-serif">2 211</text>
  <text x="624" y="155" fill="#64748b" font-size="12" font-family="Arial,sans-serif">kcal / jour</text>
  <rect x="624" y="160" width="100" height="18" rx="9" fill="#4ade8020"/>
  <text x="674" y="173" text-anchor="middle" fill="#4ade80" font-size="10" font-family="Arial,sans-serif" font-weight="bold">− 500 kcal/j · −0.5 kg/sem</text>

  <!-- ── Row 2: Macros ── -->
  <text x="24" y="210" fill="#e2e8f0" font-size="14" font-weight="bold" font-family="Arial,sans-serif">Répartition des Macronutriments</text>

  <!-- Macro bar total background -->
  <rect x="16" y="222" width="828" height="28" rx="14" fill="#1e293b"/>
  <!-- Prot segment 29% -->
  <rect x="16" y="222" width="240" height="28" rx="14" fill="url(#protGrad)"/>
  <!-- Lip segment 30% -->
  <rect x="256" y="222" width="248" height="28" fill="url(#lipGrad)"/>
  <!-- Gluc segment 41% -->
  <rect x="504" y="222" width="340" height="28" rx="0" fill="url(#glucGrad)"/>
  <!-- Round right end -->
  <rect x="828" y="222" width="16" height="28" rx="14" fill="url(#glucGrad)"/>
  <!-- Labels on bar -->
  <text x="136" y="241" text-anchor="middle" fill="white" font-size="12" font-weight="bold" font-family="Arial,sans-serif">Protéines 29%</text>
  <text x="380" y="241" text-anchor="middle" fill="white" font-size="12" font-weight="bold" font-family="Arial,sans-serif">Lipides 30%</text>
  <text x="680" y="241" text-anchor="middle" fill="white" font-size="12" font-weight="bold" font-family="Arial,sans-serif">Glucides 41%</text>

  <!-- ── Macro detail cards ── -->

  <!-- Protéines card -->
  <rect x="16" y="264" width="265" height="160" rx="10" fill="#1e293b"/>
  <rect x="16" y="264" width="265" height="5" rx="3" fill="url(#protGrad)"/>
  <text x="32" y="290" fill="#fb923c" font-size="13" font-weight="bold" font-family="Arial,sans-serif">🥩 Protéines</text>
  <text x="32" y="325" fill="white" font-size="40" font-weight="bold" font-family="Arial,sans-serif">160 g</text>
  <text x="32" y="348" fill="#64748b" font-size="12" font-family="Arial,sans-serif">640 kcal  ·  ratio 2.0 g/kg</text>
  <!-- mini progress -->
  <rect x="32" y="358" width="233" height="8" rx="4" fill="#0f172a"/>
  <rect x="32" y="358" width="68" height="8" rx="4" fill="url(#protGrad)"/>
  <text x="32" y="394" fill="#94a3b8" font-size="10" font-family="Arial,sans-serif">Préserve la masse musculaire en déficit</text>

  <!-- Lipides card -->
  <rect x="297" y="264" width="265" height="160" rx="10" fill="#1e293b"/>
  <rect x="297" y="264" width="265" height="5" rx="3" fill="url(#lipGrad)"/>
  <text x="313" y="290" fill="#fbbf24" font-size="13" font-weight="bold" font-family="Arial,sans-serif">🫒 Lipides</text>
  <text x="313" y="325" fill="white" font-size="40" font-weight="bold" font-family="Arial,sans-serif">74 g</text>
  <text x="313" y="348" fill="#64748b" font-size="12" font-family="Arial,sans-serif">663 kcal  ·  30% des calories</text>
  <!-- mini progress -->
  <rect x="313" y="358" width="233" height="8" rx="4" fill="#0f172a"/>
  <rect x="313" y="358" width="70" height="8" rx="4" fill="url(#lipGrad)"/>
  <text x="313" y="394" fill="#94a3b8" font-size="10" font-family="Arial,sans-serif">Minimum physiologique 40 g garanti</text>

  <!-- Glucides card -->
  <rect x="578" y="264" width="266" height="160" rx="10" fill="#1e293b"/>
  <rect x="578" y="264" width="266" height="5" rx="3" fill="url(#glucGrad)"/>
  <text x="594" y="290" fill="#4ade80" font-size="13" font-weight="bold" font-family="Arial,sans-serif">🌾 Glucides</text>
  <text x="594" y="325" fill="white" font-size="40" font-weight="bold" font-family="Arial,sans-serif">227 g</text>
  <text x="594" y="348" fill="#64748b" font-size="12" font-family="Arial,sans-serif">908 kcal  ·  reste calorique</text>
  <!-- mini progress -->
  <rect x="594" y="358" width="233" height="8" rx="4" fill="#0f172a"/>
  <rect x="594" y="358" width="96" height="8" rx="4" fill="url(#glucGrad)"/>
  <text x="594" y="394" fill="#94a3b8" font-size="10" font-family="Arial,sans-serif">Cohérence vérifiée : Σ = 2 211 kcal ✓</text>

  <!-- ── Footer: Safety + disclaimer ── -->
  <rect x="16" y="440" width="828" height="64" rx="10" fill="#1e293b"/>
  <text x="32" y="462" fill="#94a3b8" font-size="11" font-family="Arial,sans-serif" font-weight="bold">🛡️  GARDE-FOUS DE SÉCURITÉ ACTIFS</text>
  <rect x="32" y="470" width="16" height="16" rx="3" fill="#4ade8020"/>
  <text x="52" y="482" fill="#4ade80" font-size="11" font-family="Arial,sans-serif">Plancher calorique ♂ 1 500 kcal respecté</text>
  <rect x="240" y="470" width="16" height="16" rx="3" fill="#4ade8020"/>
  <text x="260" y="482" fill="#4ade80" font-size="11" font-family="Arial,sans-serif">Déficit max −500 kcal respecté</text>
  <rect x="440" y="470" width="16" height="16" rx="3" fill="#4ade8020"/>
  <text x="460" y="482" fill="#4ade80" font-size="11" font-family="Arial,sans-serif">Lipides min 40 g respecté</text>
  <text x="32" y="498" fill="#475569" font-size="10" font-family="Arial,sans-serif" font-style="italic">⚠ Ces recommandations sont à titre informatif uniquement et ne remplacent pas un avis médical professionnel.</text>
</svg>
