<svg width="860" height="520" viewBox="0 0 860 520" xmlns="http://www.w3.org/2000/svg">
  <!-- Background -->
  <rect width="860" height="520" rx="12" fill="#0f172a"/>

  <!-- Header bar -->
  <rect width="860" height="64" rx="12" fill="#6366f1"/>
  <rect y="52" width="860" height="12" fill="#6366f1"/>
  <text x="24" y="30" fill="white" font-size="18" font-weight="bold" font-family="Arial,sans-serif">Systeme de Nutrition Intelligente</text>
  <text x="24" y="52" fill="#e0e7ff" font-size="12" font-family="Arial,sans-serif">Analyse complete · Homme · 30 ans · 175 cm · 80 kg · Moderement actif · Perte de poids</text>

  <!-- Card IMC -->
  <rect x="16" y="80" width="186" height="100" rx="10" fill="#1e293b"/>
  <text x="30" y="104" fill="#94a3b8" font-size="11" font-weight="bold" font-family="Arial,sans-serif">IMC</text>
  <text x="30" y="138" fill="#f97316" font-size="38" font-weight="bold" font-family="Arial,sans-serif">26.1</text>
  <rect x="30" y="148" width="80" height="20" rx="10" fill="#7c2d12"/>
  <text x="70" y="162" text-anchor="middle" fill="#f97316" font-size="11" font-weight="bold" font-family="Arial,sans-serif">SURPOIDS</text>
  <text x="142" y="174" fill="#475569" font-size="10" font-family="Arial,sans-serif">OMS 2000</text>

  <!-- Card BMR -->
  <rect x="214" y="80" width="186" height="100" rx="10" fill="#1e293b"/>
  <text x="228" y="104" fill="#94a3b8" font-size="11" font-weight="bold" font-family="Arial,sans-serif">BMR · Metabolisme de base</text>
  <text x="228" y="138" fill="#a78bfa" font-size="38" font-weight="bold" font-family="Arial,sans-serif">1749</text>
  <text x="228" y="158" fill="#64748b" font-size="12" font-family="Arial,sans-serif">kcal / jour</text>
  <text x="228" y="174" fill="#475569" font-size="10" font-family="Arial,sans-serif">Mifflin-St Jeor (1990)</text>

  <!-- Card TDEE -->
  <rect x="412" y="80" width="186" height="100" rx="10" fill="#1e293b"/>
  <text x="426" y="104" fill="#94a3b8" font-size="11" font-weight="bold" font-family="Arial,sans-serif">TDEE · Depense totale</text>
  <text x="426" y="138" fill="#38bdf8" font-size="38" font-weight="bold" font-family="Arial,sans-serif">2711</text>
  <text x="426" y="158" fill="#64748b" font-size="12" font-family="Arial,sans-serif">kcal / jour</text>
  <text x="426" y="174" fill="#475569" font-size="10" font-family="Arial,sans-serif">x 1.55 (moderement actif)</text>

  <!-- Card Calories cibles -->
  <rect x="610" y="80" width="234" height="100" rx="10" fill="#1e293b"/>
  <text x="624" y="104" fill="#94a3b8" font-size="11" font-weight="bold" font-family="Arial,sans-serif">CALORIES CIBLES</text>
  <text x="624" y="138" fill="#4ade80" font-size="38" font-weight="bold" font-family="Arial,sans-serif">2211</text>
  <text x="624" y="158" fill="#64748b" font-size="12" font-family="Arial,sans-serif">kcal / jour</text>
  <rect x="624" y="162" width="120" height="18" rx="9" fill="#14532d"/>
  <text x="684" y="175" text-anchor="middle" fill="#4ade80" font-size="10" font-weight="bold" font-family="Arial,sans-serif">- 500 kcal/j · -0.5 kg/sem</text>

  <!-- Section title -->
  <text x="24" y="214" fill="#e2e8f0" font-size="14" font-weight="bold" font-family="Arial,sans-serif">Repartition des Macronutriments</text>

  <!-- Macro bar -->
  <rect x="16" y="222" width="828" height="28" rx="14" fill="#1e293b"/>
  <rect x="16" y="222" width="240" height="28" rx="14" fill="#f97316"/>
  <rect x="256" y="222" width="248" height="28" fill="#eab308"/>
  <rect x="504" y="222" width="324" height="28" fill="#22c55e"/>
  <rect x="828" y="222" width="16" height="28" rx="0" fill="#22c55e"/>
  <text x="136" y="241" text-anchor="middle" fill="white" font-size="12" font-weight="bold" font-family="Arial,sans-serif">Proteines 29%</text>
  <text x="380" y="241" text-anchor="middle" fill="white" font-size="12" font-weight="bold" font-family="Arial,sans-serif">Lipides 30%</text>
  <text x="670" y="241" text-anchor="middle" fill="white" font-size="12" font-weight="bold" font-family="Arial,sans-serif">Glucides 41%</text>

  <!-- Proteines card -->
  <rect x="16" y="264" width="265" height="160" rx="10" fill="#1e293b"/>
  <rect x="16" y="264" width="265" height="5" rx="3" fill="#f97316"/>
  <text x="32" y="292" fill="#fb923c" font-size="13" font-weight="bold" font-family="Arial,sans-serif">Proteines</text>
  <text x="32" y="332" fill="white" font-size="42" font-weight="bold" font-family="Arial,sans-serif">160 g</text>
  <text x="32" y="352" fill="#64748b" font-size="12" font-family="Arial,sans-serif">640 kcal  ·  ratio 2.0 g/kg</text>
  <rect x="32" y="362" width="233" height="8" rx="4" fill="#0f172a"/>
  <rect x="32" y="362" width="67" height="8" rx="4" fill="#f97316"/>
  <text x="32" y="394" fill="#94a3b8" font-size="10" font-family="Arial,sans-serif">Preserve la masse musculaire en deficit</text>

  <!-- Lipides card -->
  <rect x="297" y="264" width="265" height="160" rx="10" fill="#1e293b"/>
  <rect x="297" y="264" width="265" height="5" rx="3" fill="#eab308"/>
  <text x="313" y="292" fill="#fbbf24" font-size="13" font-weight="bold" font-family="Arial,sans-serif">Lipides</text>
  <text x="313" y="332" fill="white" font-size="42" font-weight="bold" font-family="Arial,sans-serif">74 g</text>
  <text x="313" y="352" fill="#64748b" font-size="12" font-family="Arial,sans-serif">663 kcal  ·  30% des calories</text>
  <rect x="313" y="362" width="233" height="8" rx="4" fill="#0f172a"/>
  <rect x="313" y="362" width="70" height="8" rx="4" fill="#eab308"/>
  <text x="313" y="394" fill="#94a3b8" font-size="10" font-family="Arial,sans-serif">Minimum physiologique 40 g garanti</text>

  <!-- Glucides card -->
  <rect x="578" y="264" width="266" height="160" rx="10" fill="#1e293b"/>
  <rect x="578" y="264" width="266" height="5" rx="3" fill="#22c55e"/>
  <text x="594" y="292" fill="#4ade80" font-size="13" font-weight="bold" font-family="Arial,sans-serif">Glucides</text>
  <text x="594" y="332" fill="white" font-size="42" font-weight="bold" font-family="Arial,sans-serif">227 g</text>
  <text x="594" y="352" fill="#64748b" font-size="12" font-family="Arial,sans-serif">908 kcal  ·  reste calorique</text>
  <rect x="594" y="362" width="233" height="8" rx="4" fill="#0f172a"/>
  <rect x="594" y="362" width="95" height="8" rx="4" fill="#22c55e"/>
  <text x="594" y="394" fill="#94a3b8" font-size="10" font-family="Arial,sans-serif">Coherence verifiee : somme = 2211 kcal</text>

  <!-- Footer -->
  <rect x="16" y="440" width="828" height="64" rx="10" fill="#1e293b"/>
  <text x="32" y="462" fill="#94a3b8" font-size="11" font-weight="bold" font-family="Arial,sans-serif">GARDE-FOUS DE SECURITE ACTIFS</text>
  <rect x="32" y="470" width="14" height="14" rx="3" fill="#14532d"/>
  <text x="50" y="481" fill="#4ade80" font-size="11" font-family="Arial,sans-serif">Plancher calorique 1500 kcal respecte</text>
  <rect x="268" y="470" width="14" height="14" rx="3" fill="#14532d"/>
  <text x="286" y="481" fill="#4ade80" font-size="11" font-family="Arial,sans-serif">Deficit max -500 kcal respecte</text>
  <rect x="470" y="470" width="14" height="14" rx="3" fill="#14532d"/>
  <text x="488" y="481" fill="#4ade80" font-size="11" font-family="Arial,sans-serif">Lipides min 40 g respecte</text>
  <text x="32" y="498" fill="#475569" font-size="10" font-family="Arial,sans-serif">Ces recommandations sont a titre informatif uniquement — ne remplace pas un avis medical professionnel.</text>
</svg>
