<svg width="820" height="500" viewBox="0 0 820 500" xmlns="http://www.w3.org/2000/svg" font-family="'Fira Code', 'Cascadia Code', 'Courier New', monospace">
  <rect width="820" height="500" rx="10" fill="#1e1e2e"/>
  <rect width="820" height="36" rx="10" fill="#313244"/>
  <rect y="26" width="820" height="10" fill="#313244"/>
  <circle cx="20" cy="18" r="6" fill="#ff5f57"/>
  <circle cx="40" cy="18" r="6" fill="#febc2e"/>
  <circle cx="60" cy="18" r="6" fill="#28c840"/>
  <text x="410" y="23" text-anchor="middle" fill="#cdd6f4" font-size="13" font-weight="500">nutrition-api — npm test</text>

  <!-- Command -->
  <text x="20" y="62" fill="#a6e3a1" font-size="13">❯</text>
  <text x="36" y="62" fill="#cdd6f4" font-size="13">npm test</text>

  <!-- Vitest output -->
  <text x="20" y="90" fill="#89b4fa" font-size="13" font-weight="bold"> vitest v1.1.0</text>
  <text x="20" y="112" fill="#6c7086" font-size="13">─────────────────────────────────────────────────</text>

  <!-- Test files -->
  <text x="20" y="134" fill="#a6e3a1" font-size="13"> ✓</text>
  <text x="38" y="134" fill="#cdd6f4" font-size="13">tests/unit/validators/profile.validator.test.ts</text>
  <text x="560" y="134" fill="#6c7086" font-size="13">(9 tests)</text>

  <text x="20" y="154" fill="#a6e3a1" font-size="13"> ✓</text>
  <text x="38" y="154" fill="#cdd6f4" font-size="13">tests/unit/calculators/imc.calculator.test.ts</text>
  <text x="548" y="154" fill="#6c7086" font-size="13">(7 tests)</text>

  <text x="20" y="174" fill="#a6e3a1" font-size="13"> ✓</text>
  <text x="38" y="174" fill="#cdd6f4" font-size="13">tests/unit/calculators/bmr.calculator.test.ts</text>
  <text x="548" y="174" fill="#6c7086" font-size="13">(5 tests)</text>

  <text x="20" y="194" fill="#a6e3a1" font-size="13"> ✓</text>
  <text x="38" y="194" fill="#cdd6f4" font-size="13">tests/unit/calculators/tdee.calculator.test.ts</text>
  <text x="556" y="194" fill="#6c7086" font-size="13">(8 tests)</text>

  <text x="20" y="214" fill="#a6e3a1" font-size="13"> ✓</text>
  <text x="38" y="214" fill="#cdd6f4" font-size="13">tests/unit/calculators/caloric.adjuster.test.ts</text>
  <text x="564" y="214" fill="#6c7086" font-size="13">(6 tests)</text>

  <text x="20" y="234" fill="#a6e3a1" font-size="13"> ✓</text>
  <text x="38" y="234" fill="#cdd6f4" font-size="13">tests/unit/calculators/macro.calculator.test.ts</text>
  <text x="564" y="234" fill="#6c7086" font-size="13">(12 tests)</text>

  <text x="20" y="254" fill="#a6e3a1" font-size="13"> ✓</text>
  <text x="38" y="254" fill="#cdd6f4" font-size="13">tests/integration/nutrition.api.test.ts</text>
  <text x="492" y="254" fill="#6c7086" font-size="13">(13 tests)</text>

  <text x="20" y="276" fill="#6c7086" font-size="13">─────────────────────────────────────────────────</text>

  <!-- Summary -->
  <text x="20" y="300" fill="#a6e3a1" font-size="14" font-weight="bold"> Test Files  7 passed (7)</text>
  <text x="20" y="322" fill="#a6e3a1" font-size="14" font-weight="bold"> Tests       60 passed (60)</text>
  <text x="20" y="344" fill="#6c7086" font-size="13"> Start at    09:07:31</text>
  <text x="20" y="364" fill="#6c7086" font-size="13"> Duration    1.24s</text>

  <!-- Coverage bar -->
  <text x="20" y="396" fill="#cdd6f4" font-size="13" font-weight="bold">Coverage Report</text>
  <text x="20" y="416" fill="#6c7086" font-size="12">Lines</text>
  <rect x="80" y="404" width="600" height="14" rx="7" fill="#313244"/>
  <rect x="80" y="404" width="516" height="14" rx="7" fill="#a6e3a1"/>
  <text x="690" y="416" fill="#a6e3a1" font-size="12" font-weight="bold">86%</text>

  <text x="20" y="440" fill="#6c7086" font-size="12">Functions</text>
  <rect x="96" y="428" width="584" height="14" rx="7" fill="#313244"/>
  <rect x="96" y="428" width="525" height="14" rx="7" fill="#a6e3a1"/>
  <text x="690" y="440" fill="#a6e3a1" font-size="12" font-weight="bold">90%</text>

  <text x="20" y="464" fill="#6c7086" font-size="12">Branches</text>
  <rect x="88" y="452" width="592" height="14" rx="7" fill="#313244"/>
  <rect x="88" y="452" width="473" height="14" rx="7" fill="#a6e3a1"/>
  <text x="690" y="464" fill="#a6e3a1" font-size="12" font-weight="bold">80%</text>

  <!-- Pass badge -->
  <rect x="650" y="288" width="148" height="28" rx="5" fill="#a6e3a120"/>
  <text x="724" y="307" text-anchor="middle" fill="#a6e3a1" font-size="13" font-weight="bold">✓ ALL PASSING</text>
</svg>
